<?xml version="1.0" ?>
<!-- Uploaded to: SVG Repo, www.svgrepo.com, Generator: SVG Repo Mixer Tools -->
<svg width="800px" height="800px" viewBox="0 0 512 512" baseProfile="tiny" overflow="visible" version="1.1" xml:space="preserve" xmlns="http://www.w3.org/2000/svg" xmlns:xlink="http://www.w3.org/1999/xlink">
<g id="Layer_1"/>
<g id="Layer_2"/>
<g id="Layer_3"/>
<g id="Layer_4"/>
<g id="Layer_5"/>
<g id="Layer_6"/>
<g id="Layer_7"/>
<g id="Layer_8"/>
<g id="Layer_9"/>
<g id="Layer_10"/>
<g id="Layer_11"/>
<g id="Layer_12"/>
<g id="Layer_13"/>
<g id="Layer_14"/>
<g id="Layer_15"/>
<g id="Layer_16"/>
<g id="Layer_17"/>
<g id="Layer_18"/>
<g id="Layer_19"/>
<g id="Layer_20"/>
<g id="Layer_21"/>
<g id="Layer_22"/>
<g id="Layer_23"/>
<g id="Layer_24"/>
<g id="Layer_25"/>
<g id="Layer_26"/>
<g id="Layer_27"/>
<g id="Layer_28"/>
<g id="Layer_29"/>
<g id="Layer_30"/>
<g id="Layer_31"/>
<g id="Layer_32"/>
<g id="Layer_33"/>
<g id="Layer_34"/>
<g id="Layer_35"/>
<g id="Layer_36"/>
<g id="Layer_37"/>
<g id="Layer_38"/>
<g id="Layer_39"/>
<g id="Layer_40"/>
<g id="Layer_41"/>
<g id="Layer_42"/>
<g id="Layer_43"/>
<g id="Layer_44"/>
<g id="Layer_45"/>
<g id="Layer_46"/>
<g id="Layer_47"/>
<g id="Layer_48"/>
<g id="Layer_49"/>
<g id="Layer_50">
<g>
<path d="M397.191,504.5H114.809c-25.778,0-46.121-21.871-44.217-47.536L97.54,93.849    c0.191-2.572,2.333-4.561,4.912-4.561h307.095c2.579,0,4.721,1.989,4.912,4.561l26.948,363.115    C443.312,482.629,422.969,504.5,397.191,504.5z" fill="#FFC4BF"/>
<path d="M441.408,456.964L414.459,93.849c-0.191-2.572-2.333-4.561-4.912-4.561h-19.414    c2.579,0,4.721,1.989,4.912,4.561l26.948,363.115c1.905,25.665-18.439,47.536-44.217,47.536h19.414    C422.969,504.5,443.312,482.629,441.408,456.964z" fill="#FFAAA1"/>
<g>
<ellipse cx="189.584" cy="161.851" fill="#FD7A6E" rx="15.407" ry="15.382"/>
<ellipse cx="322.415" cy="161.851" fill="#FD7A6E" rx="15.407" ry="15.382"/>
<path d="M322.415,146.469c-1.698,0-3.326,0.285-4.854,0.791c6.129,2.031,10.554,7.791,10.554,14.591     s-4.425,12.56-10.554,14.591c1.527,0.506,3.156,0.791,4.854,0.791c8.509,0,15.407-6.887,15.407-15.382     C337.823,153.356,330.925,146.469,322.415,146.469z" fill="#FB695B"/>
</g>
<path d="M189.585,146.469c-1.698,0-3.326,0.285-4.854,0.791c6.129,2.031,10.554,7.791,10.554,14.591    s-4.425,12.56-10.554,14.591c1.527,0.506,3.156,0.791,4.854,0.791c8.509,0,15.407-6.887,15.407-15.382    C204.992,153.356,198.094,146.469,189.585,146.469z" fill="#FB695B"/>
<path d="M70.592,456.964c-1.905,25.665,18.439,47.536,44.217,47.536h282.382c25.778,0,46.121-21.871,44.217-47.536    l-2.776-37.405H73.368L70.592,456.964z" fill="#FD7A6E"/>
<path d="M441.408,456.964l-2.776-37.405h-19.414l2.776,37.405c1.905,25.665-18.439,47.536-44.217,47.536h19.414    C422.969,504.5,443.312,482.629,441.408,456.964z" fill="#FB695B"/>
<g>
<g>
<path d="M257.687,249.342c-0.48,0-0.966-0.047-1.455-0.145c-4.001-0.799-6.597-4.691-5.798-8.693      c1.094-5.476,1.043-11.251-0.147-16.7c-1.236-5.655-3.726-11.098-7.2-15.74c-2.445-3.267-1.779-7.897,1.488-10.342      c3.267-2.445,7.897-1.779,10.342,1.488c4.732,6.322,8.122,13.736,9.807,21.441c1.621,7.424,1.691,15.29,0.201,22.749      C264.224,246.912,261.138,249.342,257.687,249.342z" fill="#A05423"/>
</g>
<ellipse cx="224.46" cy="302.19" fill="#FFA83F" rx="41.604" ry="60.239"/>
<path d="M224.459,241.952c-1.643,0-3.26,0.153-4.854,0.421c20.689,3.483,36.751,28.927,36.751,59.818     c0,30.89-16.062,56.335-36.751,59.818c1.593,0.268,3.21,0.421,4.854,0.421c22.977,0,41.604-26.97,41.604-60.239     C266.064,268.921,247.437,241.952,224.459,241.952z" fill="#FF9C20"/>
<ellipse cx="287.54" cy="302.19" fill="#FFA83F" rx="41.604" ry="60.239"/>
<ellipse cx="257.68" cy="302.19" fill="#FF9000" rx="36.199" ry="60.239"/>
<path d="M287.54,241.952c-1.643,0-3.26,0.153-4.854,0.421c20.689,3.483,36.751,28.927,36.751,59.818     c0,30.89-16.062,56.335-36.751,59.818c1.593,0.268,3.21,0.421,4.854,0.421c22.977,0,41.604-26.97,41.604-60.239     C329.145,268.921,310.518,241.952,287.54,241.952z" fill="#FF9C20"/>
<path d="M257.68,241.952c-1.647,0-3.265,0.2-4.854,0.555c17.695,3.949,31.345,29.156,31.345,59.684     s-13.65,55.736-31.345,59.684c1.589,0.354,3.206,0.555,4.854,0.555c19.992,0,36.199-26.97,36.199-60.239     C293.879,268.921,277.672,241.952,257.68,241.952z" fill="#F88000"/>
</g>
</g>
<g>
<g>
<path d="M399.316,512H112.673c-14.565,0-28.6-6.117-38.503-16.783c-9.883-10.644-14.935-25.05-13.861-39.526L87.665,87.097     c0.481-6.49,5.957-11.575,12.466-11.575h311.729c6.51,0,11.985,5.085,12.466,11.576l27.354,368.593     c1.074,14.476-3.978,28.882-13.86,39.526C427.915,505.883,413.881,512,399.316,512z M102.452,90.522L75.269,456.801     c-0.778,10.482,2.736,20.5,9.894,28.209c7.179,7.732,16.949,11.99,27.511,11.99h286.643c10.562,0,20.331-4.258,27.511-11.989     c7.158-7.709,10.672-17.728,9.894-28.209L409.538,90.522H102.452z"/>
</g>
<g>
<path d="M322.359,148.605c-4.143,0-7.5-3.358-7.5-7.5V74.287c0-32.691-26.641-59.287-59.386-59.287     c-32.751,0-59.396,26.596-59.396,59.287v66.777c0,4.142-3.358,7.5-7.5,7.5s-7.5-3.358-7.5-7.5V74.287     C181.077,33.325,214.451,0,255.473,0c41.017,0,74.386,33.325,74.386,74.287v66.818     C329.859,145.248,326.501,148.605,322.359,148.605z"/>
</g>
<g>
<g>
<path d="M188.577,179.794c-12.759,0-23.14-10.369-23.14-23.114s10.381-23.114,23.14-23.114s23.14,10.369,23.14,23.114      S201.336,179.794,188.577,179.794z M188.577,148.566c-4.488,0-8.14,3.64-8.14,8.114s3.652,8.114,8.14,8.114      s8.14-3.64,8.14-8.114S193.065,148.566,188.577,148.566z"/>
</g>
<g>
<path d="M323.413,179.794c-12.759,0-23.14-10.369-23.14-23.114s10.381-23.114,23.14-23.114s23.14,10.369,23.14,23.114      S336.171,179.794,323.413,179.794z M323.413,148.566c-4.488,0-8.14,3.64-8.14,8.114s3.651,8.114,8.14,8.114      s8.14-3.64,8.14-8.114S327.901,148.566,323.413,148.566z"/>
</g>
</g>
<g>
<path d="M399.316,512H112.673c-14.565,0-28.599-6.117-38.502-16.783c-9.883-10.644-14.936-25.05-13.861-39.526l0,0l2.818-37.969     c0.291-3.916,3.553-6.945,7.479-6.945h370.775c3.927,0,7.188,3.029,7.479,6.945l2.817,37.969     c1.074,14.476-3.978,28.882-13.86,39.526C427.915,505.883,413.881,512,399.316,512z M75.269,456.801     c-0.778,10.482,2.736,20.5,9.895,28.209c7.179,7.731,16.949,11.989,27.51,11.989h286.643c10.562,0,20.331-4.258,27.511-11.989     c7.158-7.709,10.672-17.728,9.894-28.209l-2.302-31.024H77.571L75.269,456.801z"/>
</g>
<g>
<g>
<path d="M223.975,367.79c-13.816,0-26.612-7.511-36.031-21.149c-8.834-12.792-13.699-29.661-13.699-47.501      s4.865-34.709,13.699-47.501c9.419-13.638,22.215-21.149,36.031-21.149c7.725,0,15.424,2.472,22.263,7.149      c3.419,2.338,4.295,7.005,1.958,10.424s-7.004,4.296-10.424,1.958c-4.396-3.006-9.039-4.531-13.796-4.531      c-18.826,0-34.73,24.569-34.73,53.65s15.904,53.65,34.73,53.65c4.757,0,9.399-1.524,13.797-4.531      c3.419-2.338,8.086-1.461,10.424,1.958c2.338,3.419,1.461,8.086-1.958,10.424C239.397,365.318,231.699,367.79,223.975,367.79z"/>
</g>
<g>
<path d="M288.014,367.79c-7.003,0-13.76-1.934-20.083-5.748c-3.548-2.139-4.688-6.749-2.549-10.296      c2.14-3.547,6.749-4.688,10.295-2.549c3.952,2.384,8.104,3.592,12.337,3.592c18.826,0,34.73-24.569,34.73-53.65      s-15.904-53.65-34.73-53.65c-4.234,0-8.385,1.208-12.336,3.592c-3.546,2.141-8.156,1-10.296-2.548      c-2.14-3.547-0.999-8.157,2.548-10.296c6.322-3.814,13.08-5.748,20.084-5.748c13.816,0,26.613,7.511,36.031,21.149      c8.834,12.792,13.699,29.661,13.699,47.501s-4.865,34.709-13.699,47.501C314.627,360.279,301.831,367.79,288.014,367.79z"/>
</g>
<g>
<path d="M257.7,367.786c-24.811,0-44.245-30.154-44.245-68.648s19.435-68.648,44.245-68.648s44.245,30.154,44.245,68.648      S282.51,367.786,257.7,367.786z M257.7,245.49c-15.853,0-29.245,24.568-29.245,53.648s13.393,53.648,29.245,53.648      s29.245-24.568,29.245-53.648S273.552,245.49,257.7,245.49z"/>
</g>
<g>
<path d="M257.707,245.491c-0.487,0-0.981-0.048-1.477-0.147c-4.062-0.811-6.697-4.762-5.885-8.824      c1.11-5.559,1.059-11.421-0.149-16.952c-1.255-5.74-3.782-11.266-7.309-15.978c-2.482-3.316-1.806-8.017,1.51-10.499      c3.316-2.481,8.016-1.806,10.499,1.51c4.803,6.417,8.245,13.943,9.955,21.764c1.646,7.536,1.717,15.521,0.204,23.092      C264.342,243.025,261.21,245.491,257.707,245.491z"/>
</g>
</g>
</g>
</g>
</svg>